#!OML:ASF F:\VICON\USERDATA\INSTALL\rory3\rory3.ASF
:FULLY-SPECIFIED
:DEGREES
98
root -0.9341783871047423 17.231286851260826 16.907569509183155 3.6108473584252945 -1.1748546457955173 -0.2537348219577815
lfemur -21.780201874223962 7.838098586306048 -23.819463704831257
ltibia 47.265652393523446
lfoot -0.22838058813103101 -10.305160176238951
ltoes -2.414087008650398
rfemur -12.71704936359975 5.366303469985736 25.73455742983855
rtibia 103.67374607289351
rfoot -5.528423180666699 -10.596325834905404
rtoes 5.367979207844122
lowerback 15.479684700993026 2.0001415535250042 0.20854068181609253
upperback -0.14412582756113318 2.779627195930428 0.08967871415810502
thorax -9.412047203587232 1.3549510755966967 -0.7352166710431107
lowerneck -20.86572774830704 -4.662721842778477 -1.5638564600808895
upperneck 12.34063996744394 -6.667585599733444 4.401336022492424
head 7.591233271662581 -2.6982046175002177 0.835353259819436
lclavicle -2.0490533141229255e-17 4.258099200469031e-16
lhumerus -48.64151760756519 -9.262035493329913 93.19857753364414
lradius 98.92382925935543
lwrist 34.48830126054168
lhand -29.170683887444895 6.968783800207946
lfingers 7.125019999999998
lthumb -1.0029593542280786 36.09060513842714
rclavicle -2.049053337639917e-17 4.258099198916379e-16
rhumerus -43.53500292338652 12.047696774340242 -94.31531168424388
rradius 98.35511032078618
rwrist -19.239298612881203
rhand -18.736661881453607 40.1213675371128
rfingers 7.125019999999998
rthumb 7.018560006772242 10.857284636106941
99
root -0.9449647965351 17.265633056391373 17.060668747034704 3.679816510928724 -1.5542330738788044 -0.4494746493081465
lfemur -20.605274793290132 7.994963633162421 -23.556715266756903
ltibia 46.92245216402362
lfoot 0.8150249798686318 -10.223640391197698
ltoes -3.36898356534269
rfemur -14.397579228933722 5.547652190253391 25.78912666473548
rtibia 104.54408788550101
rfoot -5.084712270827757 -10.44015623125743
rtoes 3.9573700206228994
lowerback 15.453930462376249 2.0286992847304135 0.315300675341743
upperback -0.18183167878567702 2.8275719599497906 0.21310068654612124
thorax -9.454428751655769 1.377665754512207 -0.727282688320934
lowerneck -20.81318467560065 -4.577143479673715 -1.5770443464381163
upperneck 12.467540118050767 -6.5325269371045405 4.335547921975936
head 7.6439758361503465 -2.6401960219617275 0.8205484687889397
lclavicle -2.049053314424443e-17 4.258099200451966e-16
lhumerus -49.20833128588839 -9.231624856429526 93.14435083794791
lradius 98.3064911213013
lwrist 34.506078969244754
lhand -28.90056811658011 6.644925327322309
lfingers 7.125019999999998
lthumb -0.7573100616689981 36.24370097615654
rclavicle -2.0490533376851194e-17 4.2580991989156794e-16
rhumerus -43.34216286058418 12.191255964814783 -94.22283107607532
rradius 98.43045787147506
rwrist -19.552162180209084
rhand -18.77668514583047 40.61582918897061
rfingers 7.125019999999998
rthumb 7.009360945755354 11.411547730000818
100
root -0.9523100811832467 17.297411863047284 17.19011262086144 3.72671201206458 -1.9391157985901244 -0.5770305538121323
lfemur -19.444641182591504 8.084750320147949 -23.35298195701408
ltibia 46.735558093666455
lfoot 0.960537804515899 -10.66764330525119
ltoes -5.574377101541635
rfemur -16.02623305733119 5.685621635468364 25.787593327175333
rtibia 105.2184814496868
rfoot -4.437950026010916 -10.257969791732293
rtoes 3.7661909592422607
lowerback 15.424861535351859 2.060991297098961 0.37278907606799383
upperback -0.20135210611890325 2.904040933637275 0.29856622304620484
thorax -9.459545079395744 1.4153234335414955 -0.7383070138989205
lowerneck -20.7117267222986 -4.5046985714514545 -1.5828451199699138
upperneck 12.622655462196477 -6.415828909642309 4.257256456345193
head 7.6904498831316035 -2.5935815509855575 0.8034803746553515
lclavicle -2.0490533144484132e-17 4.2580992004513056e-16
lhumerus -49.83442421242436 -9.27149115726357 93.05261294098497
lradius 97.633015603465
lwrist 34.41706962146642
lhand -28.455918410348875 6.531380919991337
lfingers 7.125019999999998
lthumb -0.46210373458103615 35.90831890849039
rclavicle -2.0490533375285564e-17 4.2580991989264764e-16
rhumerus -43.21161218560389 12.280419943777757 -94.1134665693351
rradius 98.51023619317033
rwrist -20.0196368151776
rhand -18.815863089066244 41.207463869277085
rfingers 7.125019999999998
rthumb 6.982232220777352 12.01221319635424
101
root -0.9438502464129799 17.347953594962465 17.34857247684471 3.788296475603893 -2.2397129681421073 -0.725472679056892
lfemur -18.329449947431943 8.023571778912414 -23.13027388170192
ltibia 46.7161358413279
lfoot 2.569137030117356 -10.804022060190755
ltoes -4.5140962328481145
rfemur -17.45048341466834 5.65787168021847 25.851993999388498
rtibia 105.58025705643114
rfoot -3.849026979420473 -9.978035171081322
rtoes 3.015525939155341
lowerback 15.333548938388283 2.066298304692258 0.5067420022818299
upperback -0.2135195329914697 2.9526892172751538 0.3532209701200093
thorax -9.353363031799937 1.4508756729097274 -0.7681803659728315
lowerneck -20.686915021375242 -4.449503816929497 -1.5655470409551657
upperneck 12.849216497048316 -6.330492046395029 4.167980063477187
head 7.76637062442317 -2.558781444124477 0.7824055494083932
lclavicle -2.0490533145610804e-17 4.2580992004445377e-16
lhumerus -50.461025533509854 -9.285346989579917 92.96232008010256
lradius 96.88089005359608
lwrist 34.44065679086798
lhand -27.959829516315168 6.58587208396812
lfingers 7.125019999999998
lthumb -0.23050959787328562 35.77902268889809
rclavicle -2.0490533373750228e-17 4.2580991989368416e-16
rhumerus -43.121814805231836 12.372038269999882 -93.99749950445765
rradius 98.56545742311215
rwrist -20.384927895230618
rhand -18.85357245911566 41.78625575407758
rfingers 7.125019999999998
rthumb 6.9548845254744345 12.586086791174306
102
root -0.9347942644122721 17.39983396579885 17.487878542263264 3.8680113339518503 -2.4854777310192766 -0.9472693546178891
lfemur -17.329184849114736 7.852183987568752 -22.8408105609425
ltibia 46.859927771931495
lfoot 2.9423348427679983 -11.510401470956104
ltoes -5.915806502202277
rfemur -18.742940895429143 5.630928122358506 26.01507557919746
rtibia 105.72696256907332
rfoot -3.421598841540532 -9.750277945239128
rtoes 1.7469765060387108
lowerback 15.238581074439422 2.0592721024428626 0.7186935822496364
upperback -0.24464110576880155 2.9872820027815257 0.4388127771948059
thorax -9.249611053199317 1.4715819794199976 -0.8236879753879358
lowerneck -20.631477716462342 -4.40193851014291 -1.5428958113200133
upperneck 13.100653529136782 -6.265675577763111 4.074693688864349
head 7.852111291320137 -2.535290230789778 0.7580276690962469
lclavicle -2.0490533149439586e-17 4.2580992004204133e-16
lhumerus -50.913213498631585 -9.271526055990611 92.87206723844002
lradius 95.9930791683513
lwrist 34.61921965900571
lhand -27.46080060747956 6.821026588114096
lfingers 7.125019999999998
lthumb 0.04114785328025494 35.88194979285037
rclavicle -2.0490533371711106e-17 4.2580991989505643e-16
rhumerus -43.04804357167326 12.48020423130809 -93.88225032062907
rradius 98.59042912776445
rwrist -20.83376171499567
rhand -18.898067755165826 42.300238048431545
rfingers 7.125019999999998
rthumb 6.9241815670929405 13.122479803300358
103
root -0.9340028411219101 17.44400333741847 17.59615880770971 3.9568399377742 -2.7168571103054204 -1.212339562372027
lfemur -16.4270021455688 7.626404352925668 -22.513186868827564
ltibia 47.147047946378784
lfoot 4.10858278972263 -11.97414631888943
ltoes -6.665261066226069
rfemur -19.941950453149104 5.679087030200721 26.224046807072572
rtibia 105.73756602451438
rfoot -3.0328062665205318 -9.658429145819573
rtoes 0.4001054691662196
lowerback 15.175163048748157 2.0594527768173387 0.9589797805936058
upperback -0.3068223427490253 3.0393427075042707 0.5522428338669838
thorax -9.213018144327924 1.4952781566672664 -0.8976973354805713
lowerneck -20.43313479955372 -4.363599657093793 -1.5337645656480765
upperneck 13.339309079365789 -6.215820824545066 3.992743949129352
head 7.926067314479864 -2.521124565129224 0.7378792038245746
lclavicle -2.049053315110088e-17 4.258099200410135e-16
lhumerus -51.148158268298225 -9.324105129670851 92.83509736014095
lradius 94.95631783240904
lwrist 34.78786596653036
lhand -27.18263270478983 6.546247421704283
lfingers 7.125019999999998
lthumb 0.08553065385147862 35.651857154951536
rclavicle -2.049053336830473e-17 4.2580991989728905e-16
rhumerus -43.04306434799928 12.57175427278965 -93.75754935246816
rradius 98.65690730525266
rwrist -21.11090065174173
rhand -19.024234061937598 42.743460234115034
rfingers 7.125019999999998
rthumb 6.8063150387843265 13.570423570977974
